<svg width="62" height="12" viewBox="0 0 62 12" fill="none" xmlns="http://www.w3.org/2000/svg">
<path d="M0.40332 8.15625L1.59961 7.99219C1.63151 8.75781 1.77507 9.2819 2.03027 9.56445C2.28548 9.84701 2.63867 9.98828 3.08984 9.98828C3.42253 9.98828 3.70964 9.91309 3.95117 9.7627C4.19271 9.60775 4.35905 9.40039 4.4502 9.14062C4.54134 8.8763 4.58691 8.45703 4.58691 7.88281V0.978516H5.91309V7.80762C5.91309 8.64616 5.81055 9.29557 5.60547 9.75586C5.40495 10.2161 5.08366 10.5671 4.6416 10.8086C4.2041 11.0501 3.68913 11.1709 3.09668 11.1709C2.21712 11.1709 1.54264 10.918 1.07324 10.4121C0.608398 9.90625 0.385091 9.1543 0.40332 8.15625ZM7.46484 7.37012C7.46484 6.02572 7.83854 5.02995 8.58594 4.38281C9.21029 3.84505 9.97135 3.57617 10.8691 3.57617C11.8672 3.57617 12.6829 3.9043 13.3164 4.56055C13.9499 5.21224 14.2666 6.11458 14.2666 7.26758C14.2666 8.20182 14.1253 8.93783 13.8428 9.47559C13.5648 10.0088 13.1569 10.4235 12.6191 10.7197C12.0859 11.016 11.5026 11.1641 10.8691 11.1641C9.85286 11.1641 9.03027 10.8382 8.40137 10.1865C7.77702 9.53483 7.46484 8.59603 7.46484 7.37012ZM8.72949 7.37012C8.72949 8.2998 8.93229 8.99707 9.33789 9.46191C9.74349 9.9222 10.2539 10.1523 10.8691 10.1523C11.4798 10.1523 11.988 9.91992 12.3936 9.45508C12.7992 8.99023 13.002 8.28158 13.002 7.3291C13.002 6.43132 12.7969 5.75228 12.3867 5.29199C11.9811 4.82715 11.4753 4.59473 10.8691 4.59473C10.2539 4.59473 9.74349 4.82487 9.33789 5.28516C8.93229 5.74544 8.72949 6.44043 8.72949 7.37012ZM15.2236 8.83301L16.4404 8.6416C16.5088 9.12923 16.6979 9.50293 17.0078 9.7627C17.3223 10.0225 17.7598 10.1523 18.3203 10.1523C18.8854 10.1523 19.3047 10.0384 19.5781 9.81055C19.8516 9.57812 19.9883 9.30697 19.9883 8.99707C19.9883 8.71908 19.8675 8.50033 19.626 8.34082C19.4574 8.23145 19.0381 8.09245 18.3682 7.92383C17.4658 7.69596 16.8392 7.5 16.4883 7.33594C16.1419 7.16732 15.8776 6.93717 15.6953 6.64551C15.5176 6.34928 15.4287 6.02344 15.4287 5.66797C15.4287 5.3444 15.5016 5.0459 15.6475 4.77246C15.7979 4.49447 16.0007 4.26432 16.2559 4.08203C16.4473 3.94076 16.707 3.82227 17.0352 3.72656C17.3678 3.6263 17.7233 3.57617 18.1016 3.57617C18.6712 3.57617 19.1702 3.6582 19.5986 3.82227C20.0316 3.98633 20.3506 4.20964 20.5557 4.49219C20.7607 4.77018 20.902 5.14388 20.9795 5.61328L19.7764 5.77734C19.7217 5.40365 19.5622 5.11198 19.2979 4.90234C19.0381 4.69271 18.6689 4.58789 18.1904 4.58789C17.6253 4.58789 17.222 4.68132 16.9805 4.86816C16.7389 5.05501 16.6182 5.27376 16.6182 5.52441C16.6182 5.68392 16.6683 5.82747 16.7686 5.95508C16.8688 6.08724 17.026 6.19661 17.2402 6.2832C17.3633 6.32878 17.7256 6.43359 18.3271 6.59766C19.1976 6.83008 19.8037 7.02148 20.1455 7.17188C20.4919 7.31771 20.763 7.5319 20.959 7.81445C21.1549 8.09701 21.2529 8.44792 21.2529 8.86719C21.2529 9.27734 21.1322 9.66471 20.8906 10.0293C20.6536 10.3893 20.3096 10.6696 19.8584 10.8701C19.4072 11.0661 18.8968 11.1641 18.3271 11.1641C17.3838 11.1641 16.6637 10.9681 16.167 10.5762C15.6748 10.1842 15.3604 9.60319 15.2236 8.83301ZM27.6855 8.66211L28.957 8.81934C28.7565 9.56217 28.3851 10.1387 27.8428 10.5488C27.3005 10.959 26.6077 11.1641 25.7646 11.1641C24.7028 11.1641 23.8597 10.8382 23.2354 10.1865C22.6156 9.53027 22.3057 8.61198 22.3057 7.43164C22.3057 6.21029 22.6201 5.26237 23.249 4.58789C23.8779 3.91341 24.6937 3.57617 25.6963 3.57617C26.667 3.57617 27.46 3.90658 28.0752 4.56738C28.6904 5.22819 28.998 6.15788 28.998 7.35645C28.998 7.42936 28.9958 7.53874 28.9912 7.68457H23.5771C23.6227 8.4821 23.8483 9.09277 24.2539 9.5166C24.6595 9.94043 25.1654 10.1523 25.7715 10.1523C26.2227 10.1523 26.6077 10.0339 26.9268 9.79688C27.2458 9.5599 27.4987 9.18164 27.6855 8.66211ZM23.6455 6.67285H27.6992C27.6445 6.06217 27.4896 5.60417 27.2344 5.29883C26.8424 4.82487 26.3343 4.58789 25.71 4.58789C25.1449 4.58789 24.6686 4.77702 24.2812 5.15527C23.8984 5.53353 23.6865 6.03939 23.6455 6.67285ZM33.8857 8.15625L35.082 7.99219C35.1139 8.75781 35.2575 9.2819 35.5127 9.56445C35.7679 9.84701 36.1211 9.98828 36.5723 9.98828C36.9049 9.98828 37.1921 9.91309 37.4336 9.7627C37.6751 9.60775 37.8415 9.40039 37.9326 9.14062C38.0238 8.8763 38.0693 8.45703 38.0693 7.88281V0.978516H39.3955V7.80762C39.3955 8.64616 39.293 9.29557 39.0879 9.75586C38.8874 10.2161 38.5661 10.5671 38.124 10.8086C37.6865 11.0501 37.1715 11.1709 36.5791 11.1709C35.6995 11.1709 35.0251 10.918 34.5557 10.4121C34.0908 9.90625 33.8675 9.1543 33.8857 8.15625ZM46.1631 11V9.93359C45.598 10.7539 44.8301 11.1641 43.8594 11.1641C43.431 11.1641 43.0299 11.082 42.6562 10.918C42.2871 10.7539 42.0114 10.5488 41.8291 10.3027C41.6514 10.0521 41.526 9.74674 41.4531 9.38672C41.403 9.14518 41.3779 8.76237 41.3779 8.23828V3.74023H42.6084V7.7666C42.6084 8.40918 42.6335 8.84212 42.6836 9.06543C42.7611 9.389 42.9251 9.64421 43.1758 9.83105C43.4264 10.0133 43.7363 10.1045 44.1055 10.1045C44.4746 10.1045 44.821 10.0111 45.1445 9.82422C45.4681 9.63281 45.696 9.37533 45.8281 9.05176C45.9648 8.72363 46.0332 8.24967 46.0332 7.62988V3.74023H47.2637V11H46.1631ZM49.1709 11V0.978516H50.4014V11H49.1709ZM52.3223 2.39355V0.978516H53.5527V2.39355H52.3223ZM52.3223 11V3.74023H53.5527V11H52.3223ZM54.9746 7.37012C54.9746 6.02572 55.3483 5.02995 56.0957 4.38281C56.7201 3.84505 57.4811 3.57617 58.3789 3.57617C59.377 3.57617 60.1927 3.9043 60.8262 4.56055C61.4596 5.21224 61.7764 6.11458 61.7764 7.26758C61.7764 8.20182 61.6351 8.93783 61.3525 9.47559C61.0745 10.0088 60.6667 10.4235 60.1289 10.7197C59.5957 11.016 59.0124 11.1641 58.3789 11.1641C57.3626 11.1641 56.54 10.8382 55.9111 10.1865C55.2868 9.53483 54.9746 8.59603 54.9746 7.37012ZM56.2393 7.37012C56.2393 8.2998 56.4421 8.99707 56.8477 9.46191C57.2533 9.9222 57.7637 10.1523 58.3789 10.1523C58.9896 10.1523 59.4977 9.91992 59.9033 9.45508C60.3089 8.99023 60.5117 8.28158 60.5117 7.3291C60.5117 6.43132 60.3066 5.75228 59.8965 5.29199C59.4909 4.82715 58.985 4.59473 58.3789 4.59473C57.7637 4.59473 57.2533 4.82487 56.8477 5.28516C56.4421 5.74544 56.2393 6.44043 56.2393 7.37012Z" fill="black"/>
</svg>
